<?xml version="1.0" encoding="iso-8859-1"?>
<!-- Generator: Adobe Illustrator 19.0.0, SVG Export Plug-In . SVG Version: 6.00 Build 0)  -->
<svg version="1.1" id="Capa_1" xmlns="http://www.w3.org/2000/svg" xmlns:xlink="http://www.w3.org/1999/xlink" x="0px" y="0px"
	 viewBox="0 0 512 512" style="enable-background:new 0 0 512 512;" xml:space="preserve">
<path style="fill:#F0EBE7;" d="M346.839,503.742H107.355c-13.684,0-24.774-11.091-24.774-24.774V33.032
	c0-13.684,11.091-24.774,24.774-24.774h297.29c13.684,0,24.774,11.091,24.774,24.774v388.129
	C429.419,466.771,392.448,503.742,346.839,503.742z"/>
<path style="fill:#DBD0C8;" d="M107.355,487.226c-4.558,0-8.258-3.7-8.258-8.258V33.032c0-4.558,3.7-8.258,8.258-8.258h297.29
	c4.558,0,8.258,3.7,8.258,8.258v388.129c0,36.484-29.58,66.065-66.065,66.065H107.355z"/>
<g>
	<path style="fill:#544F4B;" d="M346.839,512H107.355c-18.217,0-33.032-14.815-33.032-33.032V33.032
		C74.323,14.815,89.138,0,107.355,0h297.29c18.217,0,33.032,14.815,33.032,33.032v388.129C437.677,471.246,396.924,512,346.839,512z
		 M107.355,16.516c-9.109,0-16.516,7.407-16.516,16.516v445.935c0,9.109,7.407,16.516,16.516,16.516h239.484
		c40.985,0,74.323-33.338,74.323-74.323V33.032c0-9.109-7.408-16.516-16.516-16.516H107.355z"/>
	<path style="fill:#544F4B;" d="M396.387,272.516H115.613V41.29h280.774V272.516z M132.129,256h247.742V57.806H132.129V256z"/>
</g>
<g>
	<circle style="fill:#DD7A7A;" cx="355.097" cy="338.581" r="24.774"/>
	<circle style="fill:#DD7A7A;" cx="297.29" cy="396.387" r="24.774"/>
</g>
<g>
	
		<rect x="323.973" y="454.179" transform="matrix(-0.7071 -0.7071 0.7071 -0.7071 250.9877 1028.8374)" style="fill:#544F4B;" width="29.2" height="16.516"/>
	
		<rect x="348.711" y="429.405" transform="matrix(-0.7071 -0.7071 0.7071 -0.7071 310.7359 1004.0375)" style="fill:#544F4B;" width="29.2" height="16.516"/>
	
		<rect x="373.506" y="404.631" transform="matrix(-0.7071 -0.7071 0.7071 -0.7071 370.5828 979.2784)" style="fill:#544F4B;" width="29.2" height="16.516"/>
</g>
<rect x="132.129" y="57.806" style="fill:#7CCACB;" width="247.742" height="198.194"/>
<rect x="140.387" y="66.065" style="fill:#5CA1A1;" width="231.226" height="181.677"/>
<g>
	<path style="fill:#7CCACB;" d="M181.677,148.645c-2.114,0-4.228-0.809-5.838-2.42c-3.229-3.229-3.229-8.448,0-11.677l33.032-33.032
		c3.229-3.229,8.448-3.229,11.677,0c3.229,3.229,3.229,8.448,0,11.677l-33.032,33.032
		C185.906,147.836,183.791,148.645,181.677,148.645z"/>
	<path style="fill:#7CCACB;" d="M181.677,189.935c-2.114,0-4.228-0.809-5.838-2.42c-3.229-3.229-3.229-8.448,0-11.677l16.516-16.516
		c3.229-3.229,8.448-3.229,11.677,0s3.229,8.448,0,11.677l-16.516,16.516C185.906,189.126,183.791,189.935,181.677,189.935z"/>
	<path style="fill:#7CCACB;" d="M214.71,156.903c-2.147,0-4.294-0.908-5.863-2.395c-1.486-1.569-2.395-3.716-2.395-5.863
		s0.908-4.294,2.395-5.863c3.055-3.055,8.671-3.055,11.726,0c1.486,1.569,2.395,3.634,2.395,5.863s-0.908,4.294-2.395,5.863
		C219.004,155.995,216.857,156.903,214.71,156.903z"/>
	<path style="fill:#7CCACB;" d="M231.226,140.387c-2.114,0-4.228-0.809-5.838-2.42c-3.229-3.229-3.229-8.448,0-11.677l24.774-24.774
		c3.229-3.229,8.448-3.229,11.677,0c3.229,3.229,3.229,8.448,0,11.677l-24.774,24.774
		C235.454,139.578,233.34,140.387,231.226,140.387z"/>
</g>
<polygon style="fill:#544F4B;" points="231.226,355.097 198.194,355.097 198.194,322.065 165.161,322.065 165.161,355.097 
	132.129,355.097 132.129,388.129 165.161,388.129 165.161,421.161 198.194,421.161 198.194,388.129 231.226,388.129 "/>
<g>
</g>
<g>
</g>
<g>
</g>
<g>
</g>
<g>
</g>
<g>
</g>
<g>
</g>
<g>
</g>
<g>
</g>
<g>
</g>
<g>
</g>
<g>
</g>
<g>
</g>
<g>
</g>
<g>
</g>
</svg>
